<svg viewBox="0 0 1400 900" xmlns="http://www.w3.org/2000/svg">
  <defs>
    <style>
      .header-title { font-family: Arial, sans-serif; font-size: 20px; font-weight: bold; fill: #1e293b; }
      .header-subtitle { font-family: Arial, sans-serif; font-size: 14px; fill: #64748b; }
      .header-meta { font-family: Arial, sans-serif; font-size: 12px; fill: #94a3b8; }
      .section-title { font-family: Arial, sans-serif; font-size: 16px; font-weight: bold; }
      .metric-label { font-family: Arial, sans-serif; font-size: 14px; font-weight: 500; fill: #64748b; }
      .metric-value { font-family: Arial, sans-serif; font-size: 36px; font-weight: bold; fill: #1e293b; }
      .table-header { font-family: Arial, sans-serif; font-size: 12px; font-weight: 600; fill: #475569; }
      .table-cell { font-family: Arial, sans-serif; font-size: 14px; fill: #1e293b; }
      .positive { fill: #22c55e; }
      .negative { fill: #ef4444; }
      .warning { fill: #eab308; }
      .filter-text { font-family: Arial, sans-serif; font-size: 13px; fill: #4b5563; }
      .filter-label { font-family: Arial, sans-serif; font-size: 14px; font-weight: 600; fill: #374151; }
    </style>
  </defs>

  <!-- Background -->
  <rect width="1400" height="900" fill="#f8fafc"/>

  <!-- Header -->
  <rect x="0" y="0" width="1400" height="80" fill="#ffffff" stroke="#e2e8f0" stroke-width="1"/>

  <!-- Header Content -->
  <text x="32" y="30" class="header-title">Portfolio Triage Dashboard</text>
  <text x="32" y="50" class="header-subtitle">Q3 2024 Portfolio Performance</text>
  <text x="32" y="66" class="header-meta">Last updated: 2024-10-15 • Executive performance monitoring and decision support system</text>

  <!-- User Profile -->
  <circle cx="1340" cy="40" r="20" fill="#3b82f6"/>
  <text x="1340" y="45" font-family="Arial, sans-serif" font-size="14" font-weight="bold" fill="white" text-anchor="middle">U</text>

  <!-- Main Content Area -->
  <rect x="20" y="100" width="1360" height="780" fill="#ffffff" rx="8" stroke="#e2e8f0" stroke-width="1"/>

  <!-- Sidebar -->
  <rect x="40" y="120" width="280" height="740" fill="#f8fafc" rx="6" stroke="#e2e8f0" stroke-width="1"/>

  <!-- Sidebar Title -->
  <text x="60" y="145" class="section-title" fill="#1e293b">Filters</text>

  <!-- Filter Sections -->
  <text x="60" y="175" class="filter-label">Sector</text>
  <rect x="60" y="185" width="16" height="16" fill="none" stroke="#d1d5db" stroke-width="1.5" rx="2"/>
  <text x="85" y="197" class="filter-text">Technology</text>

  <rect x="60" y="205" width="16" height="16" fill="none" stroke="#d1d5db" stroke-width="1.5" rx="2"/>
  <text x="85" y="217" class="filter-text">Healthcare</text>

  <rect x="60" y="225" width="16" height="16" fill="none" stroke="#d1d5db" stroke-width="1.5" rx="2"/>
  <text x="85" y="237" class="filter-text">Retail</text>

  <rect x="60" y="245" width="16" height="16" fill="none" stroke="#d1d5db" stroke-width="1.5" rx="2"/>
  <text x="85" y="257" class="filter-text">Manufacturing</text>

  <rect x="60" y="265" width="16" height="16" fill="none" stroke="#d1d5db" stroke-width="1.5" rx="2"/>
  <text x="85" y="277" class="filter-text">Financial Services</text>

  <text x="60" y="305" class="filter-label">Performance Tier</text>
  <rect x="60" y="315" width="16" height="16" fill="none" stroke="#d1d5db" stroke-width="1.5" rx="2"/>
  <text x="85" y="327" class="filter-text">Ahead of Plan</text>

  <rect x="60" y="335" width="16" height="16" fill="none" stroke="#d1d5db" stroke-width="1.5" rx="2"/>
  <text x="85" y="347" class="filter-text">On Track</text>

  <rect x="60" y="355" width="16" height="16" fill="none" stroke="#d1d5db" stroke-width="1.5" rx="2"/>
  <text x="85" y="367" class="filter-text">Behind Plan</text>

  <rect x="60" y="375" width="16" height="16" fill="none" stroke="#d1d5db" stroke-width="1.5" rx="2"/>
  <text x="85" y="387" class="filter-text">Underperforming</text>

  <text x="60" y="415" class="filter-label">Cash Flow Status</text>
  <rect x="60" y="425" width="16" height="16" fill="none" stroke="#d1d5db" stroke-width="1.5" rx="2"/>
  <text x="85" y="437" class="filter-text">Positive</text>

  <rect x="60" y="445" width="16" height="16" fill="none" stroke="#d1d5db" stroke-width="1.5" rx="2"/>
  <text x="85" y="457" class="filter-text">Negative</text>

  <rect x="60" y="465" width="16" height="16" fill="none" stroke="#d1d5db" stroke-width="1.5" rx="2"/>
  <text x="85" y="477" class="filter-text">Break-even</text>

  <!-- Key Metrics Cards -->
  <!-- Revenue Card -->
  <rect x="360" y="140" width="240" height="120" fill="#ffffff" rx="8" stroke="#e2e8f0" stroke-width="1"/>
  <text x="380" y="165" class="metric-label">Revenue</text>
  <text x="380" y="195" class="metric-value">$847M</text>
  <text x="380" y="215" font-family="Arial, sans-serif" font-size="12" class="positive">+12% YoY</text>
  <text x="380" y="230" font-family="Arial, sans-serif" font-size="12" fill="#64748b">vs Plan: +3%</text>

  <!-- EBITDA Card -->
  <rect x="620" y="140" width="240" height="120" fill="#ffffff" rx="8" stroke="#e2e8f0" stroke-width="1"/>
  <text x="640" y="165" class="metric-label">EBITDA Margin</text>
  <text x="640" y="195" class="metric-value">18.5%</text>
  <text x="640" y="215" font-family="Arial, sans-serif" font-size="12" class="negative">-0.7 pts vs Q2</text>
  <text x="640" y="230" font-family="Arial, sans-serif" font-size="12" fill="#64748b">Target: 20%</text>

  <!-- Cash Health Card -->
  <rect x="880" y="140" width="240" height="120" fill="#ffffff" rx="8" stroke="#e2e8f0" stroke-width="1"/>
  <text x="900" y="165" class="metric-label">Cash Health</text>
  <text x="900" y="195" class="metric-value">9/12</text>
  <text x="975" y="198" font-family="Arial, sans-serif" font-size="14" font-weight="500" fill="#64748b">Positive</text>
  <text x="900" y="215" font-family="Arial, sans-serif" font-size="12" class="positive">+3 vs prior year</text>
  <text x="900" y="230" font-family="Arial, sans-serif" font-size="12" fill="#64748b">$38M vs Target: $30M</text>

  <!-- Two Column Layout for Tables -->

  <!-- Left Column -->
  <!-- Companies with High Negative Variance Section -->
  <rect x="360" y="290" width="385" height="180" fill="#ffffff" rx="8" stroke="#e2e8f0" stroke-width="1"/>

  <!-- Section Header -->
  <rect x="360" y="290" width="385" height="35" fill="#fef2f2" rx="8"/>
  <circle cx="375" cy="307" r="5" fill="#ef4444"/>
  <text x="375" y="310" font-family="Arial, sans-serif" font-size="8" font-weight="bold" fill="white" text-anchor="middle">!</text>
  <text x="385" y="302" font-family="Arial, sans-serif" font-size="14" font-weight="bold" fill="#dc2626">High Negative Variance</text>
  <text x="385" y="315" font-family="Arial, sans-serif" font-size="11" fill="#7f1d1d">(3 companies)</text>

  <!-- Table Header -->
  <rect x="370" y="335" width="365" height="20" fill="#f8fafc"/>
  <text x="375" y="348" font-family="Arial, sans-serif" font-size="10" font-weight="600" fill="#475569">Name</text>
  <text x="470" y="348" font-family="Arial, sans-serif" font-size="10" font-weight="600" fill="#475569">Sector</text>
  <text x="570" y="348" font-family="Arial, sans-serif" font-size="10" font-weight="600" fill="#475569">Variance</text>
  <text x="650" y="348" font-family="Arial, sans-serif" font-size="10" font-weight="600" fill="#475569">Cash Flow</text>

  <!-- Table Rows -->
  <rect x="370" y="355" width="365" height="25" fill="#ffffff" stroke="#f1f5f9" stroke-width="1"/>
  <text x="375" y="370" font-family="Arial, sans-serif" font-size="12" fill="#1e293b">RetailCo</text>
  <text x="470" y="370" font-family="Arial, sans-serif" font-size="12" fill="#64748b">Retail</text>
  <text x="570" y="370" font-family="Arial, sans-serif" font-size="12" font-weight="600" class="negative">-23%</text>
  <circle cx="660" cy="367" r="3" fill="#22c55e"/>
  <text x="670" y="370" font-family="Arial, sans-serif" font-size="12" class="positive">Pos</text>

  <rect x="370" y="380" width="365" height="25" fill="#f8fafc" stroke="#f1f5f9" stroke-width="1"/>
  <text x="375" y="395" font-family="Arial, sans-serif" font-size="12" fill="#1e293b">TechVentures</text>
  <text x="470" y="395" font-family="Arial, sans-serif" font-size="12" fill="#64748b">Technology</text>
  <text x="570" y="395" font-family="Arial, sans-serif" font-size="12" font-weight="600" class="negative">-28%</text>
  <circle cx="660" cy="392" r="3" fill="#ef4444"/>
  <text x="670" y="395" font-family="Arial, sans-serif" font-size="12" class="negative">Neg</text>

  <rect x="370" y="405" width="365" height="25" fill="#ffffff" stroke="#f1f5f9" stroke-width="1"/>
  <text x="375" y="420" font-family="Arial, sans-serif" font-size="12" fill="#1e293b">ServiceCorp</text>
  <text x="470" y="420" font-family="Arial, sans-serif" font-size="12" fill="#64748b">Financial</text>
  <text x="570" y="420" font-family="Arial, sans-serif" font-size="12" font-weight="600" class="negative">-31%</text>
  <circle cx="660" cy="417" r="3" fill="#ef4444"/>
  <text x="670" y="420" font-family="Arial, sans-serif" font-size="12" class="negative">Neg</text>

  <!-- Right Column -->
  <!-- Watch List Section -->
  <rect x="765" y="290" width="385" height="180" fill="#ffffff" rx="8" stroke="#e2e8f0" stroke-width="1"/>

  <!-- Section Header -->
  <rect x="765" y="290" width="385" height="35" fill="#fefce8" rx="8"/>
  <circle cx="780" cy="307" r="5" fill="#eab308"/>
  <text x="780" y="310" font-family="Arial, sans-serif" font-size="8" font-weight="bold" fill="white" text-anchor="middle">!</text>
  <text x="790" y="302" font-family="Arial, sans-serif" font-size="14" font-weight="bold" fill="#a16207">Watch List (±15-20%)</text>
  <text x="790" y="315" font-family="Arial, sans-serif" font-size="11" fill="#92400e">(3 companies)</text>

  <!-- Table Header -->
  <rect x="775" y="335" width="365" height="20" fill="#f8fafc"/>
  <text x="780" y="348" font-family="Arial, sans-serif" font-size="10" font-weight="600" fill="#475569">Name</text>
  <text x="875" y="348" font-family="Arial, sans-serif" font-size="10" font-weight="600" fill="#475569">Sector</text>
  <text x="975" y="348" font-family="Arial, sans-serif" font-size="10" font-weight="600" fill="#475569">Variance</text>
  <text x="1055" y="348" font-family="Arial, sans-serif" font-size="10" font-weight="600" fill="#475569">Cash Flow</text>

  <!-- Table Rows -->
  <rect x="775" y="355" width="365" height="25" fill="#ffffff" stroke="#f1f5f9" stroke-width="1"/>
  <text x="780" y="370" font-family="Arial, sans-serif" font-size="12" fill="#1e293b">HealthInc</text>
  <text x="875" y="370" font-family="Arial, sans-serif" font-size="12" fill="#64748b">Healthcare</text>
  <text x="975" y="370" font-family="Arial, sans-serif" font-size="12" font-weight="600" class="negative">-18%</text>
  <circle cx="1065" cy="367" r="3" fill="#22c55e"/>
  <text x="1075" y="370" font-family="Arial, sans-serif" font-size="12" class="positive">Pos</text>

  <rect x="775" y="380" width="365" height="25" fill="#f8fafc" stroke="#f1f5f9" stroke-width="1"/>
  <text x="780" y="395" font-family="Arial, sans-serif" font-size="12" fill="#1e293b">TechSolutions</text>
  <text x="875" y="395" font-family="Arial, sans-serif" font-size="12" fill="#64748b">Technology</text>
  <text x="975" y="395" font-family="Arial, sans-serif" font-size="12" font-weight="600" class="positive">+16%</text>
  <circle cx="1065" cy="392" r="3" fill="#22c55e"/>
  <text x="1075" y="395" font-family="Arial, sans-serif" font-size="12" class="positive">Pos</text>

  <rect x="775" y="405" width="365" height="25" fill="#ffffff" stroke="#f1f5f9" stroke-width="1"/>
  <text x="780" y="420" font-family="Arial, sans-serif" font-size="12" fill="#1e293b">Manufacturing Co</text>
  <text x="875" y="420" font-family="Arial, sans-serif" font-size="12" fill="#64748b">Manufacturing</text>
  <text x="975" y="420" font-family="Arial, sans-serif" font-size="12" font-weight="600" class="positive">+19%</text>
  <circle cx="1065" cy="417" r="3" fill="#22c55e"/>
  <text x="1075" y="420" font-family="Arial, sans-serif" font-size="12" class="positive">Pos</text>

  <!-- Bottom Row - Normal Range Section -->
  <rect x="360" y="490" width="385" height="160" fill="#ffffff" rx="8" stroke="#e2e8f0" stroke-width="1"/>

  <!-- Section Header -->
  <rect x="360" y="490" width="385" height="35" fill="#f0fdf4" rx="8"/>
  <circle cx="375" cy="507" r="5" fill="#22c55e"/>
  <text x="385" y="502" font-family="Arial, sans-serif" font-size="14" font-weight="bold" fill="#15803d">Normal Range (±15%)</text>
  <text x="385" y="515" font-family="Arial, sans-serif" font-size="11" fill="#166534">(4 companies)</text>

  <!-- Table Header -->
  <rect x="370" y="535" width="365" height="20" fill="#f8fafc"/>
  <text x="375" y="548" font-family="Arial, sans-serif" font-size="10" font-weight="600" fill="#475569">Name</text>
  <text x="470" y="548" font-family="Arial, sans-serif" font-size="10" font-weight="600" fill="#475569">Sector</text>
  <text x="570" y="548" font-family="Arial, sans-serif" font-size="10" font-weight="600" fill="#475569">Variance</text>
  <text x="650" y="548" font-family="Arial, sans-serif" font-size="10" font-weight="600" fill="#475569">Cash Flow</text>

  <!-- Table Rows -->
  <rect x="370" y="555" width="365" height="22" fill="#ffffff" stroke="#f1f5f9" stroke-width="1"/>
  <text x="375" y="569" font-family="Arial, sans-serif" font-size="11" fill="#1e293b">FinanceFirst</text>
  <text x="470" y="569" font-family="Arial, sans-serif" font-size="11" fill="#64748b">Financial</text>
  <text x="570" y="569" font-family="Arial, sans-serif" font-size="11" font-weight="600" class="positive">+8%</text>
  <circle cx="660" cy="566" r="2" fill="#22c55e"/>
  <text x="670" y="569" font-family="Arial, sans-serif" font-size="11" class="positive">Pos</text>

  <rect x="370" y="577" width="365" height="22" fill="#f8fafc" stroke="#f1f5f9" stroke-width="1"/>
  <text x="375" y="591" font-family="Arial, sans-serif" font-size="11" fill="#1e293b">Healthcare Partners</text>
  <text x="470" y="591" font-family="Arial, sans-serif" font-size="11" fill="#64748b">Healthcare</text>
  <text x="570" y="591" font-family="Arial, sans-serif" font-size="11" font-weight="600" class="positive">+12%</text>
  <circle cx="660" cy="588" r="2" fill="#22c55e"/>
  <text x="670" y="591" font-family="Arial, sans-serif" font-size="11" class="positive">Pos</text>

  <rect x="370" y="599" width="365" height="22" fill="#ffffff" stroke="#f1f5f9" stroke-width="1"/>
  <text x="375" y="613" font-family="Arial, sans-serif" font-size="11" fill="#1e293b">RetailMax</text>
  <text x="470" y="613" font-family="Arial, sans-serif" font-size="11" fill="#64748b">Retail</text>
  <text x="570" y="613" font-family="Arial, sans-serif" font-size="11" font-weight="600" class="positive">+5%</text>
  <circle cx="660" cy="610" r="2" fill="#22c55e"/>
  <text x="670" y="613" font-family="Arial, sans-serif" font-size="11" class="positive">Pos</text>

  <rect x="370" y="621" width="365" height="22" fill="#f8fafc" stroke="#f1f5f9" stroke-width="1"/>
  <text x="375" y="635" font-family="Arial, sans-serif" font-size="11" fill="#1e293b">InnovateLab</text>
  <text x="470" y="635" font-family="Arial, sans-serif" font-size="11" fill="#64748b">Technology</text>
  <text x="570" y="635" font-family="Arial, sans-serif" font-size="11" font-weight="600" class="positive">+14%</text>
  <circle cx="660" cy="632" r="2" fill="#ef4444"/>
  <text x="670" y="635" font-family="Arial, sans-serif" font-size="11" class="negative">Neg</text>

  <!-- Performing Well Section -->
  <rect x="765" y="490" width="385" height="160" fill="#ffffff" rx="8" stroke="#e2e8f0" stroke-width="1"/>

  <!-- Section Header -->
  <rect x="765" y="490" width="385" height="35" fill="#f0fdf4" rx="8"/>
  <circle cx="780" cy="507" r="5" fill="#22c55e"/>
  <text x="790" y="502" font-family="Arial, sans-serif" font-size="14" font-weight="bold" fill="#15803d">Performing Well (High Positive)</text>
  <text x="790" y="515" font-family="Arial, sans-serif" font-size="11" fill="#166534">(2 companies)</text>

  <!-- Table Header -->
  <rect x="775" y="535" width="365" height="20" fill="#f8fafc"/>
  <text x="780" y="548" font-family="Arial, sans-serif" font-size="10" font-weight="600" fill="#475569">Name</text>
  <text x="875" y="548" font-family="Arial, sans-serif" font-size="10" font-weight="600" fill="#475569">Sector</text>
  <text x="975" y="548" font-family="Arial, sans-serif" font-size="10" font-weight="600" fill="#475569">Variance</text>
  <text x="1055" y="548" font-family="Arial, sans-serif" font-size="10" font-weight="600" fill="#475569">Cash Flow</text>

  <!-- Table Rows -->
  <rect x="775" y="555" width="365" height="30" fill="#ffffff" stroke="#f1f5f9" stroke-width="1"/>
  <text x="780" y="574" font-family="Arial, sans-serif" font-size="12" fill="#1e293b">TechCorp</text>
  <text x="875" y="574" font-family="Arial, sans-serif" font-size="12" fill="#64748b">Technology</text>
  <text x="975" y="574" font-family="Arial, sans-serif" font-size="12" font-weight="600" class="positive">+45%</text>
  <circle cx="1065" cy="570" r="3" fill="#22c55e"/>
  <text x="1075" y="574" font-family="Arial, sans-serif" font-size="12" class="positive">Pos</text>

  <rect x="775" y="585" width="365" height="30" fill="#f8fafc" stroke="#f1f5f9" stroke-width="1"/>
  <text x="780" y="604" font-family="Arial, sans-serif" font-size="12" fill="#1e293b">ManufacturePlus</text>
  <text x="875" y="604" font-family="Arial, sans-serif" font-size="12" fill="#64748b">Manufacturing</text>
  <text x="975" y="604" font-family="Arial, sans-serif" font-size="12" font-weight="600" class="positive">+22%</text>
  <circle cx="1065" cy="600" r="3" fill="#22c55e"/>
  <text x="1075" y="604" font-family="Arial, sans-serif" font-size="12" class="positive">Pos</text>

</svg>